<svg width="154" height="154" viewBox="0 0 154 154" fill="none" xmlns="http://www.w3.org/2000/svg">
<path d="M138.292 14.0918C136.71 13.3359 135.926 13.8636 135.576 14.7764L138.292 14.0918Z" fill="#EDF2F3"/>
<path d="M21.8818 64.6691V46.7545H27.9998C29.7068 46.6393 31.4062 47.0733 32.8578 47.9954C33.4078 48.421 33.8462 48.9781 34.1344 49.6175C34.4225 50.2569 34.5515 50.9588 34.5098 51.6611C34.5237 52.4857 34.2945 53.2955 33.8518 53.986C33.393 54.6423 32.7482 55.14 32.0038 55.4123C32.8542 55.6215 33.6066 56.1258 34.1318 56.8386C34.6615 57.5834 34.9325 58.4868 34.9018 59.406C34.9521 60.1403 34.8326 60.8764 34.553 61.5551C34.2734 62.2339 33.8415 62.8363 33.2918 63.3141C31.9554 64.31 30.3261 64.813 28.6718 64.7404L21.8818 64.6691ZM25.5078 54.257H28.1818C30.0158 54.257 30.9818 53.4868 30.9818 52.0319C31.0143 51.7035 30.9675 51.372 30.8455 51.0662C30.7235 50.7605 30.53 50.4897 30.2818 50.2775C29.5989 49.8505 28.7968 49.665 27.9998 49.7498H25.5078V54.257ZM25.5078 56.8671V61.7024H28.6018C29.3198 61.7495 30.0304 61.5317 30.6038 61.089C30.8444 60.8754 31.0348 60.6094 31.1608 60.3106C31.2868 60.0119 31.3453 59.6881 31.3318 59.3632C31.3716 59.0206 31.3336 58.6734 31.2209 58.3481C31.1081 58.0228 30.9236 57.7283 30.6815 57.4872C30.4394 57.246 30.1462 57.0647 29.8245 56.9572C29.5027 56.8497 29.1611 56.8189 28.8258 56.8671H25.5078Z" fill="#001350"/>
<path d="M45.0245 63.3131C44.5923 63.8438 44.0446 64.2644 43.4248 64.5417C42.8051 64.8191 42.1305 64.9453 41.4545 64.9106C40.8648 64.9545 40.2729 64.8675 39.7194 64.6558C39.1659 64.444 38.664 64.1124 38.2485 63.684C37.439 62.6689 37.0342 61.3806 37.1145 60.0754V51.332H40.6005V59.8899C40.6005 61.3163 41.2305 61.9724 42.4625 61.9724C42.946 62.0247 43.4341 61.9342 43.8686 61.7116C44.303 61.4891 44.6654 61.1439 44.9125 60.7172V51.332H48.4125V64.6396H45.1225L45.0245 63.3131Z" fill="#001350"/>
<path d="M58.1837 54.6848C57.7658 54.6274 57.3452 54.5941 56.9237 54.585C56.4001 54.5204 55.8699 54.623 55.406 54.8785C54.9421 55.1339 54.5674 55.5297 54.3337 56.0113V64.7261H50.8477V51.333H54.1377L54.2357 52.9162C54.5032 52.3624 54.918 51.8963 55.4328 51.571C55.9477 51.2457 56.5418 51.0743 57.1477 51.0762C57.5183 51.074 57.8868 51.1318 58.2397 51.2474L58.1837 54.6848Z" fill="#001350"/>
<path d="M71.4003 58.136C71.483 59.8935 70.9905 61.6293 70.0003 63.071C69.5782 63.6615 69.0208 64.1379 68.3766 64.4586C67.7324 64.7793 67.0209 64.9346 66.3043 64.911C65.6994 64.9317 65.0975 64.8144 64.5428 64.5677C63.9881 64.3209 63.4945 63.9508 63.0983 63.4847V69.7605H59.5703V51.3324H62.8043L62.9303 52.6304C63.3272 52.1305 63.8316 51.7304 64.4045 51.4608C64.9774 51.1912 65.6035 51.0594 66.2343 51.0757C66.9631 51.0468 67.6877 51.2008 68.3444 51.5242C69.001 51.8475 69.5697 52.3302 70.0003 52.9299C70.9874 54.4053 71.4786 56.1668 71.4003 57.9505V58.136ZM67.9143 57.8792C67.9718 56.8852 67.7483 55.8952 67.2703 55.0266C67.072 54.7052 66.7943 54.4426 66.4651 54.2649C66.1359 54.0872 65.7667 54.0006 65.3943 54.0139C64.9333 53.9699 64.47 54.069 64.0653 54.2981C63.6605 54.5272 63.3332 54.8756 63.1263 55.2976V60.7461C63.333 61.1733 63.6614 61.527 64.0685 61.7611C64.4756 61.9952 64.9425 62.0988 65.4083 62.0583C67.0043 62.0441 67.8443 60.6605 67.8443 57.8792H67.9143Z" fill="#001350"/>
<path d="M88.5082 59.9776C88.5254 59.6702 88.4695 59.3631 88.3452 59.0825C88.2209 58.8019 88.0319 58.556 87.7942 58.3658C86.9841 57.8411 86.1017 57.4421 85.1762 57.182C84.1488 56.8631 83.151 56.4526 82.1942 55.9554C81.3289 55.588 80.5859 54.9741 80.0545 54.1873C79.5231 53.4005 79.2258 52.4742 79.1982 51.5195C79.185 50.5895 79.4647 49.6798 79.9962 48.9236C80.5925 48.1261 81.3913 47.5097 82.3062 47.1407C83.3806 46.7118 84.5264 46.4987 85.6802 46.5131C86.8356 46.4912 87.982 46.7248 89.0402 47.1978C89.9706 47.6232 90.7658 48.3049 91.3362 49.1661C91.8776 50.0143 92.1602 51.007 92.1482 52.0187H88.5222C88.5427 51.663 88.4855 51.3071 88.3548 50.9766C88.2241 50.6462 88.0231 50.3493 87.7662 50.1075C87.1603 49.6166 86.3969 49.3726 85.6242 49.4228C84.8952 49.376 84.1715 49.5766 83.5662 49.9933C83.3321 50.1658 83.1423 50.3933 83.0131 50.6565C82.8839 50.9198 82.8191 51.211 82.8242 51.5052C82.8379 51.7986 82.9247 52.0835 83.0766 52.3331C83.2285 52.5827 83.4404 52.7887 83.6922 52.9316C84.4784 53.4276 85.3324 53.8025 86.2262 54.0441C87.891 54.4526 89.4364 55.2594 90.7342 56.3975C91.193 56.849 91.5544 57.3929 91.7955 57.9945C92.0365 58.5962 92.1519 59.2424 92.1342 59.892C92.1656 60.5982 92.0247 61.3013 91.7242 61.9384C91.4237 62.5756 90.973 63.127 90.4122 63.5434C89.0378 64.4814 87.4025 64.9417 85.7502 64.8556C84.4892 64.8957 83.2341 64.6624 82.0682 64.171C81.047 63.7423 80.1677 63.0246 79.5342 62.1028C78.9407 61.2012 78.6328 60.1359 78.6522 59.0505H82.2922C82.2922 61.0331 83.4542 62.0172 85.7642 62.0172C86.4799 62.0571 87.1898 61.8675 87.7942 61.4752C88.0266 61.3063 88.2137 61.0807 88.3385 60.819C88.4632 60.5574 88.5216 60.2681 88.5082 59.9776Z" fill="#001350"/>
<path d="M102.059 63.3131C101.624 63.844 101.074 64.2647 100.452 64.5419C99.8299 64.8192 99.1532 64.9454 98.4751 64.9106C97.8856 64.9526 97.2942 64.8648 96.741 64.6531C96.1878 64.4414 95.6858 64.1109 95.2691 63.6839C94.4707 62.6635 94.0717 61.3779 94.1491 60.0754V51.332H97.6351V59.8899C97.6351 61.3163 98.2511 61.9724 99.4971 61.9724C99.979 62.0273 100.466 61.9378 100.899 61.7148C101.332 61.4919 101.691 61.1452 101.933 60.7172V51.332H105.447V64.6396H102.199L102.059 63.3131Z" fill="#001350"/>
<path d="M107.8 47.9084C107.791 47.6649 107.833 47.4223 107.922 47.1962C108.011 46.9702 108.146 46.7657 108.318 46.5961C108.505 46.418 108.726 46.2796 108.966 46.189C109.206 46.0984 109.462 46.0574 109.718 46.0684C109.974 46.0566 110.23 46.0972 110.47 46.1878C110.711 46.2785 110.931 46.4173 111.118 46.5961C111.457 46.9482 111.648 47.422 111.648 47.9155C111.648 48.409 111.457 48.8828 111.118 49.2348C110.734 49.5842 110.232 49.7682 109.718 49.7483C109.204 49.7653 108.703 49.5816 108.318 49.2348C108.146 49.0625 108.011 48.8556 107.922 48.6272C107.833 48.3988 107.791 48.154 107.8 47.9084ZM111.51 64.6676H108.01V51.3315H111.51V64.6676Z" fill="#001350"/>
<path d="M118.244 48.0813V51.3333H120.484V53.9292H118.244V60.6043C118.212 60.9833 118.311 61.3618 118.524 61.6741C118.672 61.7974 118.842 61.8888 119.025 61.9427C119.208 61.9967 119.399 62.0121 119.588 61.9879C119.931 61.992 120.273 61.9633 120.61 61.9023V64.598C119.925 64.8098 119.213 64.9156 118.496 64.9118C117.996 64.9741 117.489 64.9195 117.013 64.7523C116.537 64.5851 116.104 64.3096 115.748 63.9467C115.392 63.5838 115.121 63.1431 114.957 62.6579C114.793 62.1727 114.739 61.6558 114.8 61.1463V54.0147H112.854V51.3333H114.8V48.0527L118.244 48.0813Z" fill="#001350"/>
<path d="M127.918 64.9101C127.054 64.9514 126.19 64.8134 125.379 64.5045C124.568 64.1956 123.827 63.7222 123.2 63.113C122.591 62.4875 122.116 61.7397 121.805 60.9172C121.494 60.0947 121.354 59.2153 121.394 58.3348V57.9925C121.373 56.7513 121.632 55.5216 122.15 54.3982C122.624 53.3908 123.372 52.5439 124.306 51.9592C125.273 51.3807 126.378 51.0846 127.498 51.1034C128.279 51.0672 129.058 51.2026 129.783 51.5004C130.508 51.7982 131.161 52.2514 131.698 52.8292C132.804 54.2009 133.355 55.9505 133.238 57.7215V59.1478H124.978C125.039 59.9759 125.404 60.7502 126 61.3158C126.593 61.8511 127.365 62.1322 128.156 62.1003C128.755 62.1376 129.354 62.0274 129.902 61.7792C130.451 61.5309 130.932 61.1518 131.306 60.674L133 62.5139C132.46 63.282 131.731 63.892 130.886 64.2826C129.954 64.7101 128.941 64.9243 127.918 64.9101ZM127.526 53.9703C127.211 53.957 126.897 54.0153 126.606 54.1411C126.315 54.267 126.056 54.4571 125.846 54.6977C125.368 55.2737 125.075 55.9858 125.006 56.7373H129.864V56.4663C129.895 55.7932 129.67 55.1339 129.234 54.6264C129.013 54.398 128.746 54.2211 128.451 54.1078C128.156 53.9946 127.841 53.9476 127.526 53.9703Z" fill="#001350"/>
<path d="M44.5623 89.673C44.4689 91.3783 43.7193 92.9772 42.4763 94.1232C41.1211 95.2472 39.4059 95.8212 37.6603 95.7349C36.3552 95.7563 35.0701 95.4056 33.9503 94.7222C32.8746 94.0352 32.0184 93.044 31.4863 91.8696C30.8924 90.5239 30.5824 89.0661 30.5763 87.5906V85.822C30.5457 84.286 30.8468 82.7619 31.4583 81.3576C32.0075 80.1537 32.8878 79.138 33.9923 78.4336C35.1316 77.702 36.4537 77.3207 37.8003 77.3354C39.508 77.2451 41.1852 77.8215 42.4903 78.9471C43.7308 80.1291 44.4735 81.7548 44.5623 83.4828H41.5103C41.4724 82.4524 41.081 81.4682 40.4043 80.7015C39.6765 80.0872 38.7427 79.7854 37.8003 79.86C37.2137 79.8233 36.6272 79.9343 36.0925 80.183C35.5578 80.4317 35.0914 80.8106 34.7343 81.2863C33.9615 82.5705 33.5814 84.0601 33.6423 85.5652V87.2768C33.5514 88.8253 33.9066 90.3671 34.6643 91.7127C34.9931 92.2078 35.4414 92.6083 35.9661 92.8756C36.4909 93.1429 37.0744 93.268 37.6603 93.2388C38.6301 93.3102 39.5918 93.0158 40.3623 92.4116C41.0545 91.6682 41.4618 90.6965 41.5103 89.673H44.5623Z" fill="#001350"/>
<path d="M52.5982 95.7475C51.7635 95.7823 50.9308 95.6406 50.1525 95.3313C49.3742 95.022 48.6673 94.5518 48.0762 93.9503C47.4865 93.3165 47.0287 92.5678 46.7304 91.7491C46.4321 90.9304 46.2994 90.0587 46.3402 89.1864V88.8155C46.3204 87.5836 46.5791 86.3635 47.0962 85.2498C47.5615 84.2502 48.2943 83.4048 49.2102 82.8107C50.1201 82.23 51.1747 81.928 52.2482 81.9407C53.0314 81.8802 53.8177 82.0044 54.5462 82.3037C55.2746 82.603 55.9254 83.0694 56.4482 83.6665C57.4772 85.0836 57.9739 86.8293 57.8482 88.5873V89.8425H49.3082C49.3598 90.7995 49.7473 91.7056 50.4002 92.3956C50.7139 92.7132 51.0883 92.9619 51.5 93.1262C51.9118 93.2906 52.3523 93.3672 52.7942 93.3512C53.4192 93.3547 54.036 93.2065 54.5935 92.9188C55.1511 92.631 55.6333 92.2121 56.0002 91.6967L57.5822 93.2371C57.0618 94.0337 56.3415 94.674 55.4962 95.0914C54.5899 95.5261 53.6 95.7502 52.5982 95.7475ZM52.2482 84.3369C51.8799 84.3239 51.5132 84.3939 51.1744 84.5418C50.8357 84.6897 50.5331 84.912 50.2882 85.1927C49.7491 85.8844 49.4228 86.723 49.3502 87.6032H54.9502V87.375C54.9477 86.5505 54.6714 85.7512 54.1662 85.1071C53.9207 84.8445 53.6219 84.6395 53.2906 84.5065C52.9594 84.3735 52.6037 84.3156 52.2482 84.3369Z" fill="#001350"/>
<path d="M66.8226 84.9082C66.4238 84.8503 66.0214 84.8217 65.6186 84.8226C65.0619 84.7635 64.5009 84.8829 64.014 85.1642C63.5272 85.4454 63.1386 85.8745 62.9026 86.3916V95.5485H59.9766V82.1839H62.7766V83.6103C63.0828 83.0772 63.5266 82.6397 64.0598 82.3455C64.5929 82.0513 65.195 81.9116 65.8006 81.9415C66.1534 81.9315 66.5049 81.9895 66.8366 82.1126L66.8226 84.9082Z" fill="#001350"/>
<path d="M72.8004 78.9473V82.185H75.1104V84.3958H72.8004V91.8269C72.7657 92.2216 72.8699 92.6159 73.0944 92.9395C73.2404 93.0653 73.4101 93.1593 73.5931 93.2157C73.7761 93.2721 73.9685 93.2897 74.1584 93.2675C74.5024 93.2723 74.8456 93.2339 75.1804 93.1534V95.464C74.5516 95.6456 73.902 95.7415 73.2484 95.7493C70.9944 95.7493 69.8744 94.4799 69.8744 91.941V84.3958H67.7324V82.185H69.8884V78.9473H72.8004Z" fill="#001350"/>
<path d="M76.8886 78.718C76.8814 78.5078 76.9162 78.2982 76.9908 78.1021C77.0654 77.906 77.1783 77.7273 77.3226 77.5769C77.4834 77.4189 77.6748 77.2967 77.8845 77.2181C78.0942 77.1395 78.3176 77.1063 78.5406 77.1205C78.7658 77.106 78.9914 77.1391 79.2034 77.2177C79.4154 77.2962 79.6092 77.4185 79.7726 77.5769C79.9195 77.7261 80.035 77.9042 80.112 78.1004C80.189 78.2966 80.226 78.5067 80.2206 78.718C80.2313 78.9274 80.1995 79.1367 80.1273 79.3331C80.055 79.5294 79.9438 79.7084 79.8006 79.859C79.6372 80.0174 79.4434 80.1397 79.2314 80.2183C79.0194 80.2968 78.7938 80.3299 78.5686 80.3154C78.3456 80.3296 78.1222 80.2964 77.9125 80.2178C77.7028 80.1392 77.5114 80.017 77.3506 79.859C77.1992 79.7126 77.0797 79.5353 77.0001 79.3387C76.9205 79.1421 76.8825 78.9306 76.8886 78.718ZM80.0106 95.5485H77.0706V82.1839H80.0106V95.5485Z" fill="#001350"/>
<path d="M83.8034 95.5479V84.3941H81.8154V82.1833H83.8034V80.9567C83.7659 80.3349 83.8534 79.7119 84.0604 79.1257C84.2674 78.5396 84.5897 78.0026 85.0074 77.5478C85.4637 77.1248 85.9987 76.7996 86.5807 76.5913C87.1627 76.3831 87.7798 76.296 88.3954 76.3354C88.9489 76.3378 89.4996 76.4145 90.0334 76.5636V78.9028C89.6645 78.8297 89.2892 78.7962 88.9134 78.8029C88.6225 78.7611 88.3261 78.7895 88.0479 78.8858C87.7698 78.9821 87.5177 79.1437 87.312 79.3574C87.1064 79.5711 86.9528 79.831 86.8638 80.1162C86.7747 80.4014 86.7527 80.704 86.7994 80.9994V82.1833H89.4594V84.3941H86.7994V95.5479H83.8034Z" fill="#001350"/>
<path d="M91.4349 78.718C91.4267 78.2943 91.5827 77.8843 91.869 77.5769C92.0324 77.4185 92.2262 77.2962 92.4382 77.2177C92.6502 77.1391 92.8758 77.106 93.1009 77.1205C93.3259 77.1077 93.5511 77.1416 93.7629 77.2201C93.9746 77.2985 94.1686 77.4199 94.3329 77.5769C94.6192 77.8843 94.7752 78.2943 94.767 78.718C94.7715 78.9257 94.7354 79.1323 94.6609 79.3257C94.5864 79.5191 94.4749 79.6956 94.3329 79.8448C94.1686 80.0018 93.9746 80.1232 93.7629 80.2016C93.5511 80.2801 93.3259 80.3139 93.1009 80.3012C92.8758 80.3156 92.6502 80.2825 92.4382 80.204C92.2262 80.1255 92.0324 80.0032 91.869 79.8448C91.727 79.6956 91.6155 79.5191 91.541 79.3257C91.4665 79.1323 91.4304 78.9257 91.4349 78.718ZM94.5569 95.5485H91.617V82.1839H94.5569V95.5485Z" fill="#001350"/>
<path d="M103.096 95.7459C102.262 95.7807 101.429 95.6391 100.651 95.3298C99.8723 95.0204 99.1653 94.5502 98.5743 93.9487C97.9846 93.3149 97.5268 92.5662 97.2285 91.7475C96.9301 90.9288 96.7974 90.0571 96.8383 89.1848V88.814C96.8184 87.582 97.0771 86.3619 97.5943 85.2482C98.0596 84.2487 98.7923 83.4032 99.7083 82.8092C100.622 82.2258 101.682 81.9237 102.76 81.9391C103.53 81.8919 104.3 82.0226 105.012 82.3215C105.725 82.6204 106.362 83.0796 106.876 83.665C107.911 85.0791 108.408 86.8271 108.276 88.5858V89.8409H99.7363C99.7706 90.8159 100.154 91.7444 100.814 92.4511C101.129 92.7673 101.503 93.0151 101.915 93.1793C102.327 93.3436 102.767 93.421 103.208 93.4067C103.847 93.4204 104.479 93.2772 105.052 92.9892C105.624 92.7012 106.121 92.2769 106.498 91.7522L108.08 93.2926C107.551 94.0866 106.827 94.7258 105.98 95.1468C105.074 95.5598 104.089 95.7644 103.096 95.7459ZM102.746 84.3353C102.378 84.3223 102.011 84.3923 101.672 84.5402C101.334 84.6882 101.031 84.9104 100.786 85.1911C100.247 85.8828 99.9208 86.7215 99.8483 87.6016H105.448V87.3734C105.446 86.5489 105.169 85.7496 104.664 85.1055C104.419 84.8429 104.12 84.6379 103.789 84.5049C103.457 84.3719 103.102 84.314 102.746 84.3353Z" fill="#001350"/>
<path d="M109.928 88.744C109.846 86.9821 110.339 85.2422 111.328 83.7947C111.762 83.1986 112.331 82.7186 112.987 82.3957C113.643 82.0728 114.366 81.9166 115.094 81.9405C115.723 81.9062 116.352 82.0166 116.933 82.2635C117.515 82.5104 118.035 82.8875 118.454 83.3668V76.5918H121.38V95.5476H118.72L118.58 94.1213C118.158 94.6509 117.621 95.0735 117.011 95.3556C116.401 95.6378 115.735 95.7719 115.066 95.7473C114.344 95.7635 113.629 95.6006 112.983 95.2726C112.336 94.9446 111.778 94.4613 111.356 93.8645C110.333 92.3674 109.831 90.5653 109.928 88.744ZM112.868 89.0008C112.803 90.1114 113.071 91.2159 113.638 92.1672C113.872 92.5321 114.195 92.829 114.575 93.029C114.956 93.2289 115.38 93.3252 115.808 93.3083C116.358 93.3304 116.903 93.1866 117.374 92.8948C117.844 92.603 118.22 92.1763 118.454 91.668V85.9627C118.216 85.467 117.842 85.0522 117.377 84.7687C116.913 84.4851 116.377 84.345 115.836 84.3652C115.403 84.3477 114.972 84.4449 114.587 84.6474C114.202 84.8499 113.875 85.1507 113.638 85.5206C113.051 86.5782 112.783 87.7888 112.868 89.0008Z" fill="#001350"/>
<path d="M154 106.061H146.552L146.678 104.178C147.21 95.3919 147.686 86.777 147.868 78.0194C148.078 68.406 147.028 59.9051 146.468 52.3456C146.096 43.9596 146.204 35.5587 146.79 27.1854C146.79 26.3866 146.79 25.6021 146.902 24.8319C146.986 23.4056 147.056 21.9793 147.07 20.4103V19.9539C147.099 18.7143 146.939 17.4776 146.594 16.2883C146.237 15.0784 145.434 14.0562 144.354 13.4356C143.485 13.0043 142.518 12.8172 141.554 12.8936L106.554 14.2486C105.28 14.2486 100.072 15.0331 99.96 15.6037C99.96 15.675 99.96 15.7605 99.96 15.8461C99.96 17.1726 104.16 17.7289 104.16 17.7289L138.208 18.5276L140.154 18.2709L141.442 18.5561V18.7416L141.736 18.8699C141.736 19.255 141.736 19.7828 141.736 20.4531C141.736 21.7939 141.638 23.1917 141.568 24.6037C141.568 25.4025 141.47 26.2155 141.442 26.9999C141.033 35.1081 141.108 43.2341 141.666 51.3329C142.198 59.249 142.716 68.5771 142.52 77.9053C142.352 86.6058 141.862 95.1209 141.344 103.807L141.19 106.047H11.606C11.41 96.7184 11.2 87.6755 10.92 79.2175C10.528 64.8259 10.15 51.2474 10.15 39.7512L10.066 23.6766V22.6069C10.2159 21.8852 10.5327 21.2104 10.99 20.6386C11.2599 20.2641 11.6222 19.9689 12.04 19.7828H12.222H12.474L51.352 19.3406C51.8157 19.3418 52.2742 19.2419 52.6968 19.0475C53.1194 18.8532 53.4962 18.5689 53.802 18.2138C54.1611 17.8193 54.391 17.3209 54.46 16.7875C54.6 15.5894 49.672 14.6052 48.538 14.1345C48.0929 13.9529 47.6175 13.8609 47.138 13.8635L28.588 14.4483L12.474 14.2486C12.2875 14.2373 12.1005 14.2373 11.914 14.2486C11.4777 14.2664 11.0452 14.3383 10.626 14.4626C9.1472 14.9297 7.84642 15.8514 6.902 17.1013C5.91498 18.3464 5.23349 19.8132 4.914 21.3802C4.81779 21.8499 4.76158 22.3271 4.746 22.8066V23.7765V39.8939C4.816 51.3329 5.922 67.0224 6.328 81.3855C6.552 89.4727 6.622 97.6312 6.622 106.061H0V137.868H6.608V144.814C6.57545 146.018 6.65986 147.221 6.86 148.408C7.00617 149.254 7.29008 150.068 7.7 150.819C8.23197 151.825 9.0728 152.627 10.094 153.101C10.9335 153.462 11.8445 153.619 12.754 153.557H20.79C31.122 153.557 38.822 152.844 46.186 152.644C54.586 152.445 62.986 153.315 70.966 153.586C76.902 153.8 82.614 153.999 88.172 153.999C90.356 153.999 92.512 153.999 94.654 153.9L105.616 153.571C107.282 153.571 107.394 153.571 107.52 153.571C107.646 153.571 107.744 153.571 109.34 153.571H115.444C119.518 153.571 120.442 153.158 121.996 152.545C122.78 152.245 128.114 151.389 128.058 150.719C128.002 150.048 118.916 148.936 118.076 148.95C112.658 149.05 109.018 147.938 104.874 148.037H101.948C100.422 148.037 100.31 148.037 100.198 148.037C100.086 148.037 99.946 148.037 98.182 148.037L94.472 148.365C86.856 148.636 79.072 148.365 70.742 148.066C62.79 147.781 54.74 147.11 46.424 147.31C39.158 147.51 30.884 148.009 20.776 148.023H12.376C12.2832 147.808 12.2128 147.583 12.166 147.353C12.0203 146.051 11.9688 144.74 12.012 143.43C12.012 142.66 12.012 141.89 12.012 141.177V137.896H139.412C139.316 141.369 139.405 144.845 139.678 148.308C139.692 148.409 139.685 148.512 139.658 148.61C139.631 148.708 139.585 148.799 139.522 148.878C139.459 148.957 139.38 149.022 139.292 149.069C139.203 149.115 139.106 149.143 139.006 149.15C138.488 149.335 132.93 149.264 133.518 150.576C134.106 151.888 138.922 152.131 139.846 152.245C140.342 152.311 140.847 152.273 141.329 152.134C141.81 151.994 142.258 151.755 142.646 151.432C143.084 151.047 143.421 150.557 143.626 150.006C143.698 149.753 143.754 149.496 143.794 149.235L143.878 148.779C144.284 146.497 144.536 141.647 144.704 137.968H154V106.061Z" fill="#001350"/>
<path d="M12.2776 124.26V129.366H9.35156V114.86H14.9516C15.9173 114.843 16.8744 115.047 17.7516 115.459C18.5193 115.826 19.1626 116.417 19.5996 117.157C20.0418 117.911 20.2696 118.775 20.2576 119.653C20.293 120.286 20.1851 120.918 19.9424 121.502C19.6996 122.086 19.3285 122.605 18.8576 123.019C17.7273 123.907 16.32 124.347 14.8956 124.26H12.2776ZM12.2776 121.835H14.8956C15.5429 121.866 16.1777 121.647 16.6736 121.222C16.8832 121.017 17.0469 120.768 17.1532 120.492C17.2595 120.216 17.306 119.92 17.2896 119.624C17.3143 118.989 17.0931 118.369 16.6736 117.898C16.4504 117.671 16.1835 117.493 15.8896 117.375C15.5957 117.257 15.2812 117.202 14.9656 117.214H12.2776V121.835Z" fill="#67D6FF"/>
<path d="M27.3415 124.076H25.0035V129.382H22.0635V114.862H27.3695C28.758 114.765 30.1356 115.169 31.2615 116.003C31.7249 116.395 32.0926 116.892 32.3356 117.454C32.5785 118.015 32.6901 118.627 32.6615 119.24C32.695 120.115 32.4707 120.979 32.0175 121.722C31.5446 122.425 30.8838 122.974 30.1135 123.305L33.1935 129.225V129.367H30.0155L27.3415 124.076ZM25.0035 121.651H27.3695C27.9934 121.687 28.608 121.484 29.0915 121.08C29.2939 120.873 29.452 120.626 29.5556 120.353C29.6592 120.081 29.7062 119.789 29.6935 119.497C29.7088 119.203 29.6658 118.909 29.5672 118.632C29.4686 118.355 29.3163 118.101 29.1195 117.885C28.883 117.67 28.6058 117.505 28.305 117.402C28.0041 117.299 27.6858 117.26 27.3695 117.286H25.0035V121.651Z" fill="#67D6FF"/>
<path d="M42.7 126.384H37.562L36.582 129.365H33.46L38.752 114.859H41.482L46.816 129.365H43.694L42.7 126.384ZM38.346 123.959H41.902L40.124 118.525L38.346 123.959Z" fill="#67D6FF"/>
<path d="M58.9263 124.534C58.9039 125.235 58.7408 125.925 58.4471 126.56C58.1533 127.196 57.7352 127.763 57.2183 128.228C56.0815 129.164 54.6463 129.641 53.1863 129.568C52.3746 129.607 51.5649 129.458 50.818 129.132C50.0712 128.805 49.4066 128.311 48.8743 127.686C47.7552 126.22 47.1979 124.39 47.3063 122.537V121.638C47.2786 120.372 47.5273 119.115 48.0343 117.958C48.4652 116.949 49.1881 116.098 50.1063 115.519C51.2093 114.892 52.4678 114.605 53.7281 114.693C54.9885 114.782 56.1963 115.242 57.2043 116.018C58.2437 117 58.8664 118.356 58.9403 119.798H56.0003C56.0049 119.044 55.7299 118.315 55.2303 117.758C54.6627 117.281 53.9334 117.05 53.2003 117.117C52.7748 117.09 52.3497 117.174 51.9651 117.361C51.5805 117.548 51.2491 117.832 51.0023 118.186C50.4371 119.195 50.1743 120.35 50.2463 121.51V122.651C50.1645 123.84 50.4067 125.03 50.9463 126.088C51.1888 126.451 51.521 126.742 51.9094 126.933C52.2978 127.123 52.7285 127.206 53.1583 127.172C53.8882 127.229 54.6125 127.005 55.1883 126.545C55.7089 126.01 56.0008 125.287 56.0003 124.534H58.9263Z" fill="#67D6FF"/>
<path d="M71.0923 117.27H66.7243V129.365H63.7843V117.27H59.4863V114.859H71.0923V117.27Z" fill="#67D6FF"/>
<path d="M75.6838 129.365H72.7998V114.859H75.7398L75.6838 129.365Z" fill="#67D6FF"/>
<path d="M88.649 117.27H84.281V129.365H81.341V117.27H77.001V114.859H88.607L88.649 117.27Z" fill="#67D6FF"/>
<path d="M93.2398 129.365H90.2998V114.859H93.2398V129.365Z" fill="#67D6FF"/>
<path d="M107.465 122.435C107.493 123.732 107.235 125.018 106.709 126.2C106.257 127.228 105.517 128.096 104.581 128.696C103.62 129.266 102.529 129.566 101.417 129.566C100.305 129.566 99.2136 129.266 98.253 128.696C97.3144 128.104 96.5653 127.247 96.097 126.229C95.5715 125.067 95.3084 123.799 95.327 122.52V121.807C95.3006 120.506 95.5589 119.214 96.083 118.027C96.5364 116.992 97.2822 116.118 98.225 115.517C99.1856 114.947 100.277 114.646 101.389 114.646C102.501 114.646 103.592 114.947 104.553 115.517C105.494 116.115 106.239 116.983 106.695 118.013C107.229 119.192 107.492 120.48 107.465 121.778V122.435ZM104.483 121.778C104.547 120.587 104.269 119.403 103.685 118.37C103.427 117.996 103.084 117.691 102.685 117.48C102.287 117.27 101.845 117.16 101.396 117.16C100.947 117.16 100.505 117.27 100.107 117.48C99.7083 117.691 99.3655 117.996 99.107 118.37C98.511 119.409 98.2286 120.605 98.295 121.807V122.506C98.23 123.712 98.5122 124.912 99.107 125.958C99.3655 126.331 99.7083 126.636 100.107 126.847C100.505 127.057 100.947 127.167 101.396 127.167C101.845 127.167 102.287 127.057 102.685 126.847C103.084 126.636 103.427 126.331 103.685 125.958C104.282 124.918 104.56 123.721 104.483 122.52V121.778Z" fill="#67D6FF"/>
<path d="M120.974 129.365H118.034L112.322 119.794V129.337H109.396V114.859H112.322L118.048 124.43V114.859H120.974V129.365Z" fill="#67D6FF"/>
<path d="M131.908 123.075H126.308V126.926H132.916V129.322H123.34V114.859H132.874V117.27H126.28V120.736H131.88L131.908 123.075Z" fill="#67D6FF"/>
<path d="M139.691 124.076H137.339V129.382H134.399V114.862H139.691C141.08 114.765 142.457 115.169 143.583 116.003C144.047 116.395 144.415 116.892 144.658 117.454C144.9 118.015 145.012 118.627 144.983 119.24C145.042 120.107 144.827 120.969 144.368 121.701C143.909 122.433 143.232 122.996 142.435 123.305L145.515 129.225V129.367H142.365L139.691 124.076ZM137.339 121.651H139.719C140.339 121.685 140.948 121.482 141.427 121.08C141.633 120.875 141.793 120.628 141.896 120.355C142 120.082 142.046 119.79 142.029 119.497C142.048 119.203 142.007 118.908 141.908 118.63C141.809 118.353 141.655 118.099 141.455 117.885C141.219 117.67 140.942 117.505 140.641 117.402C140.34 117.299 140.022 117.26 139.705 117.286H137.339V121.651Z" fill="#67D6FF"/>
<path d="M92.6097 0H61.3896V31.8069H92.6097V0Z" fill="#FF6633"/>
<path d="M78.218 27.3999H75.782V23.7342L79.058 19.6264H75.782V14.6486H69.874L75.782 7.21746V4.42188H78.218V8.08751L74.956 12.1953H78.218V17.1732H84.126L78.218 24.6043V27.3999Z" fill="white"/>
</svg>
